<svg width="38" height="37" viewBox="0 0 38 37" fill="none" xmlns="http://www.w3.org/2000/svg">
<path d="M15.4883 21.3601C17.7498 23.6542 20.4861 25.4254 23.505 26.5492L27.5892 23.2992C27.7102 23.2159 27.8538 23.1712 28.0008 23.1712C28.1479 23.1712 28.2914 23.2159 28.4125 23.2992L35.9958 28.1851C36.2837 28.3582 36.5274 28.5958 36.7077 28.8793C36.888 29.1627 36.9998 29.4842 37.0345 29.8183C37.0692 30.1525 37.0257 30.4901 36.9075 30.8045C36.7893 31.1189 36.5995 31.4016 36.3533 31.6301L32.8 35.1401C32.2911 35.6429 31.6657 36.0119 30.9795 36.2141C30.2933 36.4164 29.5677 36.4456 28.8675 36.2992C21.8824 34.8566 15.4441 31.4779 10.2883 26.5492C5.24702 21.5716 1.75846 15.238 0.245828 8.31675C0.0963992 7.62736 0.127587 6.91106 0.336368 6.23726C0.54515 5.56347 0.924444 4.95503 1.43749 4.47092L5.12083 0.917584C5.34876 0.683353 5.62673 0.503723 5.93392 0.392143C6.24111 0.280563 6.56957 0.239924 6.89469 0.27327C7.21981 0.306616 7.53318 0.413082 7.81132 0.584697C8.08947 0.756312 8.32519 0.988628 8.50083 1.26425L13.5492 8.75008C13.6362 8.86763 13.6832 9.01005 13.6832 9.15633C13.6832 9.30262 13.6362 9.44503 13.5492 9.56258L10.2233 13.5601C11.3777 16.5186 13.1762 19.183 15.4883 21.3601Z" fill="#D29800"/>
</svg>
