<svg width="198" height="23" viewBox="0 0 198 23" fill="none" xmlns="http://www.w3.org/2000/svg">
<path d="M0.82 0.999999H10C12.24 0.999999 14.23 1.44 15.97 2.32C17.71 3.18 19.06 4.41 20.02 6.01C20.98 7.59 21.46 9.42 21.46 11.5C21.46 13.58 20.98 15.42 20.02 17.02C19.06 18.6 17.71 19.83 15.97 20.71C14.23 21.57 12.24 22 10 22H0.82V0.999999ZM9.82 18.7C11.36 18.7 12.71 18.41 13.87 17.83C15.05 17.23 15.95 16.39 16.57 15.31C17.21 14.21 17.53 12.94 17.53 11.5C17.53 10.06 17.21 8.8 16.57 7.72C15.95 6.62 15.05 5.78 13.87 5.2C12.71 4.6 11.36 4.3 9.82 4.3H4.72V18.7H9.82ZM40.2452 22L35.9552 15.85C35.7752 15.87 35.5052 15.88 35.1452 15.88H30.4052V22H26.5052V0.999999H35.1452C36.9652 0.999999 38.5452 1.3 39.8852 1.9C41.2452 2.5 42.2852 3.36 43.0052 4.48C43.7252 5.6 44.0852 6.93 44.0852 8.47C44.0852 10.05 43.6952 11.41 42.9152 12.55C42.1552 13.69 41.0552 14.54 39.6152 15.1L44.4452 22H40.2452ZM40.1552 8.47C40.1552 7.13 39.7152 6.1 38.8352 5.38C37.9552 4.66 36.6652 4.3 34.9652 4.3H30.4052V12.67H34.9652C36.6652 12.67 37.9552 12.31 38.8352 11.59C39.7152 10.85 40.1552 9.81 40.1552 8.47ZM59.1585 22.3C57.0185 22.3 55.0885 21.84 53.3685 20.92C51.6485 19.98 50.2985 18.69 49.3185 17.05C48.3385 15.39 47.8485 13.54 47.8485 11.5C47.8485 9.46 48.3385 7.62 49.3185 5.98C50.2985 4.32 51.6485 3.03 53.3685 2.11C55.0885 1.17 57.0185 0.699999 59.1585 0.699999C61.2985 0.699999 63.2285 1.17 64.9485 2.11C66.6685 3.03 68.0185 4.31 68.9985 5.95C69.9785 7.59 70.4685 9.44 70.4685 11.5C70.4685 13.56 69.9785 15.41 68.9985 17.05C68.0185 18.69 66.6685 19.98 64.9485 20.92C63.2285 21.84 61.2985 22.3 59.1585 22.3ZM59.1585 18.88C60.5585 18.88 61.8185 18.57 62.9385 17.95C64.0585 17.31 64.9385 16.43 65.5785 15.31C66.2185 14.17 66.5385 12.9 66.5385 11.5C66.5385 10.1 66.2185 8.84 65.5785 7.72C64.9385 6.58 64.0585 5.7 62.9385 5.08C61.8185 4.44 60.5585 4.12 59.1585 4.12C57.7585 4.12 56.4985 4.44 55.3785 5.08C54.2585 5.7 53.3785 6.58 52.7385 7.72C52.0985 8.84 51.7785 10.1 51.7785 11.5C51.7785 12.9 52.0985 14.17 52.7385 15.31C53.3785 16.43 54.2585 17.31 55.3785 17.95C56.4985 18.57 57.7585 18.88 59.1585 18.88ZM84.1424 0.999999C85.9624 0.999999 87.5424 1.3 88.8824 1.9C90.2424 2.5 91.2824 3.36 92.0024 4.48C92.7224 5.6 93.0824 6.93 93.0824 8.47C93.0824 9.99 92.7224 11.32 92.0024 12.46C91.2824 13.58 90.2424 14.44 88.8824 15.04C87.5424 15.64 85.9624 15.94 84.1424 15.94H79.4024V22H75.5024V0.999999H84.1424ZM83.9624 12.64C85.6624 12.64 86.9524 12.28 87.8324 11.56C88.7124 10.84 89.1524 9.81 89.1524 8.47C89.1524 7.13 88.7124 6.1 87.8324 5.38C86.9524 4.66 85.6624 4.3 83.9624 4.3H79.4024V12.64H83.9624Z" fill="#DFA100"/>
<path d="M120.58 0.999999V22H118.45V5.2L110.2 19.33H109.15L100.9 5.29V22H98.77V0.999999H100.6L109.72 16.57L118.75 0.999999H120.58ZM137.502 22.18C135.422 22.18 133.532 21.72 131.832 20.8C130.152 19.86 128.832 18.58 127.872 16.96C126.932 15.34 126.462 13.52 126.462 11.5C126.462 9.48 126.932 7.66 127.872 6.04C128.832 4.42 130.152 3.15 131.832 2.23C133.532 1.29 135.422 0.819999 137.502 0.819999C139.582 0.819999 141.452 1.28 143.112 2.2C144.792 3.12 146.112 4.4 147.072 6.04C148.032 7.66 148.512 9.48 148.512 11.5C148.512 13.52 148.032 15.35 147.072 16.99C146.112 18.61 144.792 19.88 143.112 20.8C141.452 21.72 139.582 22.18 137.502 22.18ZM137.502 20.2C139.162 20.2 140.662 19.83 142.002 19.09C143.342 18.33 144.392 17.29 145.152 15.97C145.912 14.63 146.292 13.14 146.292 11.5C146.292 9.86 145.912 8.38 145.152 7.06C144.392 5.72 143.342 4.68 142.002 3.94C140.662 3.18 139.162 2.8 137.502 2.8C135.842 2.8 134.332 3.18 132.972 3.94C131.632 4.68 130.572 5.72 129.792 7.06C129.032 8.38 128.652 9.86 128.652 11.5C128.652 13.14 129.032 14.63 129.792 15.97C130.572 17.29 131.632 18.33 132.972 19.09C134.332 19.83 135.842 20.2 137.502 20.2ZM154.388 0.999999H162.938C165.158 0.999999 167.118 1.45 168.818 2.35C170.518 3.23 171.838 4.47 172.778 6.07C173.718 7.65 174.188 9.46 174.188 11.5C174.188 13.54 173.718 15.36 172.778 16.96C171.838 18.54 170.518 19.78 168.818 20.68C167.118 21.56 165.158 22 162.938 22H154.388V0.999999ZM162.818 20.08C164.658 20.08 166.268 19.72 167.648 19C169.028 18.26 170.098 17.25 170.858 15.97C171.618 14.67 171.998 13.18 171.998 11.5C171.998 9.82 171.618 8.34 170.858 7.06C170.098 5.76 169.028 4.75 167.648 4.03C166.268 3.29 164.658 2.92 162.818 2.92H156.608V20.08H162.818ZM192.951 16.39H181.251L178.731 22H176.421L186.021 0.999999H188.211L197.811 22H195.471L192.951 16.39ZM192.141 14.59L187.101 3.31L182.061 14.59H192.141Z" fill="black"/>
</svg>
