<svg width="42" height="37" viewBox="0 0 42 37" fill="none" xmlns="http://www.w3.org/2000/svg">
<path d="M20.8125 0C15.7835 0 11.707 4.0765 11.707 9.10547C11.707 13.1711 17.6581 20.5812 19.9381 23.271C20.3999 23.8159 21.2259 23.8159 21.6869 23.271C23.9669 20.5812 29.918 13.1711 29.918 9.10547C29.918 4.0765 25.8415 0 20.8125 0ZM20.8125 12.1406C19.1359 12.1406 17.7773 10.782 17.7773 9.10547C17.7773 7.42891 19.1359 6.07031 20.8125 6.07031C22.4891 6.07031 23.8477 7.42891 23.8477 9.10547C23.8477 10.782 22.4891 12.1406 20.8125 12.1406ZM1.45398 15.6058C1.02486 15.7774 0.656989 16.0737 0.397829 16.4564C0.138669 16.839 0.000102777 17.2906 0 17.7528L0 35.8423C0 36.6604 0.825996 37.2197 1.58551 36.9162L11.5625 32.375V15.5313C10.9237 14.3765 10.4012 13.2521 10.0269 12.1768L1.45398 15.6058ZM20.8125 25.9918C19.7957 25.9918 18.8339 25.5452 18.1741 24.7662C16.7533 23.0896 15.2423 21.1803 13.875 19.2219V32.3743L27.75 36.9993V19.2227C26.3827 21.1803 24.8724 23.0903 23.4509 24.7669C22.7911 25.5452 21.8293 25.9918 20.8125 25.9918ZM40.0395 11.6463L30.0625 16.1875V37L40.171 32.9567C40.6002 32.7852 40.9681 32.4889 41.2273 32.1062C41.4865 31.7235 41.625 31.2719 41.625 30.8097V12.7202C41.625 11.9021 40.799 11.3428 40.0395 11.6463Z" fill="#D29800"/>
</svg>
