<svg width="34" height="34" viewBox="0 0 34 34" fill="none" xmlns="http://www.w3.org/2000/svg">
<path d="M30.8125 0H3.1875C1.43438 0 0 1.43438 0 3.1875V30.8125C0 32.5656 1.43438 34 3.1875 34H30.8125C32.5656 34 34 32.5656 34 30.8125V3.1875C34 1.43438 32.5656 0 30.8125 0ZM23.375 5.3125C23.375 4.72813 23.8531 4.25 24.4375 4.25H28.6875C29.2719 4.25 29.75 4.72813 29.75 5.3125V9.5625C29.75 10.1469 29.2719 10.625 28.6875 10.625H24.4375C24.1559 10.6244 23.886 10.5123 23.6868 10.3132C23.4877 10.114 23.3756 9.84412 23.375 9.5625V5.3125ZM17 10.625C18.6623 10.6679 20.242 11.3584 21.4025 12.5493C22.563 13.7401 23.2125 15.3372 23.2125 17C23.2125 18.6628 22.563 20.2599 21.4025 21.4507C20.242 22.6416 18.6623 23.3321 17 23.375C15.3377 23.3321 13.758 22.6416 12.5975 21.4507C11.437 20.2599 10.7875 18.6628 10.7875 17C10.7875 15.3372 11.437 13.7401 12.5975 12.5493C13.758 11.3584 15.3377 10.6679 17 10.625ZM29.75 28.6875C29.75 29.2719 29.2719 29.75 28.6875 29.75H5.3125C5.03088 29.7494 4.76096 29.6373 4.56182 29.4382C4.36268 29.239 4.25056 28.9691 4.25 28.6875V14.875H6.5875C6.27195 16.4189 6.30386 18.0137 6.6809 19.5438C7.05795 21.0739 7.77069 22.5009 8.76747 23.7215C9.76425 24.942 11.0201 25.9255 12.444 26.6007C13.8679 27.2758 15.4242 27.6257 17 27.625C18.5758 27.6257 20.1321 27.2758 21.556 26.6007C22.9799 25.9255 24.2357 24.942 25.2325 23.7215C26.2293 22.5009 26.9421 21.0739 27.3191 19.5438C27.6961 18.0137 27.728 16.4189 27.4125 14.875H29.75V28.6875Z" fill="black"/>
</svg>
