<svg width="31" height="28" viewBox="0 0 31 28" fill="none" xmlns="http://www.w3.org/2000/svg">
<path d="M29.5651 5.60308C29.1011 4.51467 28.4322 3.52836 27.5957 2.69936C26.7586 1.8679 25.7716 1.20714 24.6883 0.753033C23.5651 0.280278 22.3604 0.0382954 21.1442 0.0411318C19.4378 0.0411318 17.773 0.514564 16.3263 1.40882C15.9801 1.62274 15.6513 1.85771 15.3398 2.11371C15.0283 1.85771 14.6995 1.62274 14.3534 1.40882C12.9067 0.514564 11.2419 0.0411318 9.53552 0.0411318C8.30682 0.0411318 7.11619 0.279601 5.99132 0.753033C4.90453 1.20893 3.92503 1.86472 3.08398 2.69936C2.24637 3.52742 1.57727 4.51396 1.11459 5.60308C0.633497 6.73581 0.387756 7.93868 0.387756 9.17661C0.387756 10.3444 0.623113 11.5613 1.09037 12.7992C1.48147 13.8338 2.04218 14.9069 2.75863 15.9905C3.89388 17.7054 5.45485 19.4939 7.39308 21.307C10.605 24.3124 13.7858 26.3885 13.9208 26.4727L14.7411 27.0057C15.1045 27.2407 15.5717 27.2407 15.9352 27.0057L16.7554 26.4727C16.8904 26.385 20.0677 24.3124 23.2831 21.307C25.2214 19.4939 26.7823 17.7054 27.9176 15.9905C28.634 14.9069 29.1982 13.8338 29.5858 12.7992C30.0531 11.5613 30.2885 10.3444 30.2885 9.17661C30.2919 7.93868 30.0462 6.73581 29.5651 5.60308Z" fill="#F80000"/>
</svg>
