<svg width="34" height="35" viewBox="0 0 34 35" fill="none" xmlns="http://www.w3.org/2000/svg">
<path fill-rule="evenodd" clip-rule="evenodd" d="M4.19425e-07 3.21909C4.19425e-07 2.46757 0.298538 1.74684 0.829938 1.21544C1.36134 0.684039 2.08207 0.385502 2.83358 0.385502H31.08C31.4524 0.384894 31.8213 0.457749 32.1656 0.599896C32.5098 0.742044 32.8226 0.950692 33.0861 1.2139C33.3496 1.4771 33.5586 1.78969 33.7011 2.13377C33.8436 2.47785 33.9169 2.84666 33.9167 3.21909V31.4655C33.9171 31.838 33.844 32.2069 33.7017 32.5512C33.5594 32.8954 33.3506 33.2082 33.0873 33.4717C32.824 33.7352 32.5113 33.9441 32.1671 34.0866C31.8229 34.2291 31.454 34.3024 31.0815 34.3022H2.83358C2.46134 34.3022 2.09275 34.2288 1.74886 34.0863C1.40498 33.9438 1.09254 33.735 0.829393 33.4717C0.56625 33.2084 0.357562 32.8958 0.215252 32.5519C0.0729413 32.2079 -0.000202106 31.8393 4.19425e-07 31.467V3.21909ZM13.4248 13.317H18.0175V15.6233C18.6804 14.2975 20.3762 13.1043 22.9246 13.1043C27.8101 13.1043 28.9679 15.7451 28.9679 20.5906V29.5662H24.0238V21.6944C24.0238 18.9348 23.3609 17.3778 21.6774 17.3778C19.3418 17.3778 18.3705 19.0566 18.3705 21.6944V29.5662H13.4248V13.317ZM4.94567 29.355H9.89134V13.1043H4.94567V29.3534V29.355ZM10.599 7.804C10.6083 8.22746 10.5329 8.64851 10.3773 9.04245C10.2217 9.43638 9.989 9.79527 9.69282 10.0981C9.39663 10.4008 9.04295 10.6414 8.65254 10.8056C8.26212 10.9699 7.84283 11.0545 7.41927 11.0545C6.99572 11.0545 6.57643 10.9699 6.18601 10.8056C5.79559 10.6414 5.44191 10.4008 5.14573 10.0981C4.84954 9.79527 4.61682 9.43638 4.46122 9.04245C4.30561 8.64851 4.23026 8.22746 4.23958 7.804C4.25789 6.97282 4.60093 6.18185 5.19524 5.60048C5.78956 5.01911 6.58789 4.69356 7.41927 4.69356C8.25066 4.69356 9.04899 5.01911 9.6433 5.60048C10.2376 6.18185 10.5807 6.97282 10.599 7.804Z" fill="black"/>
</svg>
