<svg width="30" height="31" viewBox="0 0 30 31" fill="none" xmlns="http://www.w3.org/2000/svg">
<path fill-rule="evenodd" clip-rule="evenodd" d="M15.2139 0C12.9731 0 10.824 0.803083 9.23952 2.23258C7.655 3.66207 6.76483 5.60089 6.76483 7.6225V9.52812H4.65256C4.13255 9.52809 3.63081 9.70111 3.2434 10.014C2.85599 10.327 2.61015 10.7578 2.55295 11.2241L0.440675 28.3748C0.408004 28.6411 0.437955 28.9106 0.528573 29.1658C0.61919 29.421 0.768437 29.656 0.966571 29.8556C1.16471 30.0552 1.40727 30.2149 1.67844 30.3242C1.9496 30.4335 2.24327 30.49 2.54028 30.49H27.8876C28.1846 30.49 28.4783 30.4335 28.7494 30.3242C29.0206 30.2149 29.2632 30.0552 29.4613 29.8556C29.6594 29.656 29.8087 29.421 29.8993 29.1658C29.9899 28.9106 30.0199 28.6411 29.9872 28.3748L27.8749 11.2241C27.8177 10.7578 27.5719 10.327 27.1845 10.014C26.7971 9.70111 26.2953 9.52809 25.7753 9.52812H23.6631V7.6225C23.6631 5.60089 22.7729 3.66207 21.1884 2.23258C19.6038 0.803083 17.4548 0 15.2139 0ZM19.4385 9.52812V7.6225C19.4385 6.61169 18.9934 5.64229 18.2012 4.92754C17.4089 4.21279 16.3344 3.81125 15.2139 3.81125C14.0935 3.81125 13.019 4.21279 12.2267 4.92754C11.4345 5.64229 10.9894 6.61169 10.9894 7.6225V9.52812H19.4385ZM6.76483 15.245C6.76483 14.7396 6.98738 14.2549 7.3835 13.8975C7.77963 13.5401 8.3169 13.3394 8.87711 13.3394C9.43732 13.3394 9.97459 13.5401 10.3707 13.8975C10.7668 14.2549 10.9894 14.7396 10.9894 15.245C10.9894 15.7504 10.7668 16.2351 10.3707 16.5925C9.97459 16.9499 9.43732 17.1506 8.87711 17.1506C8.3169 17.1506 7.77963 16.9499 7.3835 16.5925C6.98738 16.2351 6.76483 15.7504 6.76483 15.245ZM21.5508 13.3394C20.9906 13.3394 20.4533 13.5401 20.0572 13.8975C19.661 14.2549 19.4385 14.7396 19.4385 15.245C19.4385 15.7504 19.661 16.2351 20.0572 16.5925C20.4533 16.9499 20.9906 17.1506 21.5508 17.1506C22.111 17.1506 22.6483 16.9499 23.0444 16.5925C23.4405 16.2351 23.6631 15.7504 23.6631 15.245C23.6631 14.7396 23.4405 14.2549 23.0444 13.8975C22.6483 13.5401 22.111 13.3394 21.5508 13.3394Z" fill="#EDAB00"/>
</svg>
