<svg width="31" height="35" viewBox="0 0 31 35" fill="none" xmlns="http://www.w3.org/2000/svg">
<path d="M26.3214 7.41879C26.0873 7.29778 25.8593 7.16513 25.6385 7.02133C24.9962 6.59674 24.4074 6.09644 23.8846 5.53121C22.5766 4.03459 22.0881 2.51629 21.9081 1.45326H21.9153C21.765 0.570898 21.8272 0 21.8366 0H15.879V23.0368C15.879 23.3461 15.879 23.6518 15.866 23.9539C15.866 23.9915 15.8624 24.0262 15.8602 24.0666C15.8602 24.0832 15.8602 24.1006 15.8566 24.1179V24.1309C15.7938 24.9575 15.5288 25.756 15.085 26.4561C14.6412 27.1562 14.0321 27.7365 13.3114 28.146C12.5602 28.5734 11.7106 28.7975 10.8464 28.7964C8.0707 28.7964 5.82107 26.533 5.82107 23.7378C5.82107 20.9426 8.0707 18.6792 10.8464 18.6792C11.3719 18.6787 11.8941 18.7614 12.3936 18.9242L12.4009 12.8582C10.8843 12.6623 9.34353 12.7829 7.87585 13.2122C6.40818 13.6416 5.04541 14.3704 3.87352 15.3528C2.84667 16.245 1.9834 17.3096 1.32254 18.4986C1.07106 18.9321 0.12221 20.6745 0.0073074 23.5022C-0.0649582 25.1072 0.417053 26.7701 0.646858 27.4573V27.4718C0.791389 27.8765 1.35145 29.2575 2.26416 30.4217C3.00014 31.3555 3.86968 32.1759 4.84477 32.8563V32.8418L4.85922 32.8563C7.74334 34.8161 10.9411 34.6875 10.9411 34.6875C11.4946 34.6651 13.349 34.6875 15.4548 33.6895C17.7904 32.5831 19.1201 30.9347 19.1201 30.9347C19.9696 29.9498 20.6451 28.8274 21.1175 27.6156C21.6566 26.1985 21.8366 24.4988 21.8366 23.8195V11.5979C21.9088 11.6413 22.8714 12.2779 22.8714 12.2779C22.8714 12.2779 24.2582 13.1668 26.4218 13.7456C27.9741 14.1576 30.0655 14.2443 30.0655 14.2443V8.33006C29.3327 8.40955 27.8447 8.1783 26.3214 7.41879Z" fill="black"/>
</svg>
