<svg width="36" height="29" viewBox="0 0 36 29" fill="none" xmlns="http://www.w3.org/2000/svg">
<path d="M35.0051 3.4551C33.7178 4.02551 32.3349 4.41093 30.8811 4.58514C32.3812 3.68757 33.5034 2.2749 34.0385 0.610722C32.6291 1.44783 31.0867 2.03707 29.4782 2.35281C28.3966 1.19789 26.9639 0.432392 25.4025 0.175161C23.8412 -0.082069 22.2387 0.183359 20.8437 0.930237C19.4487 1.67712 18.3393 2.86366 17.6878 4.30564C17.0362 5.74763 16.879 7.36438 17.2405 8.90489C14.3848 8.76151 11.5912 8.01928 9.04099 6.72637C6.49076 5.43346 4.24088 3.61876 2.43738 1.40006C1.82071 2.46381 1.46613 3.69714 1.46613 5.01064C1.46544 6.19309 1.75663 7.35743 2.31385 8.40035C2.87108 9.44327 3.67712 10.3325 4.66046 10.9892C3.52005 10.9529 2.4048 10.6448 1.40754 10.0904V10.1829C1.40743 11.8414 1.98109 13.4488 3.0312 14.7324C4.08131 16.016 5.54317 16.8968 7.16875 17.2253C6.11083 17.5116 5.00169 17.5538 3.92508 17.3486C4.38373 18.7756 5.27712 20.0234 6.48019 20.9174C7.68327 21.8115 9.13579 22.3069 10.6344 22.3344C8.09041 24.3314 4.94858 25.4147 1.71433 25.41C1.14142 25.4101 0.568993 25.3767 0 25.3098C3.28294 27.4206 7.10453 28.5408 11.0075 28.5365C24.2196 28.5365 31.4423 17.5937 31.4423 8.10322C31.4423 7.79489 31.4346 7.48347 31.4207 7.17514C32.8256 6.15914 34.0383 4.90102 35.002 3.45972L35.0051 3.4551Z" fill="black"/>
</svg>
