<svg width="33" height="33" viewBox="0 0 33 33" fill="none" xmlns="http://www.w3.org/2000/svg">
<path d="M29.1163 27.0244C30.7866 24.9882 31.9483 22.5743 32.5031 19.987C33.058 17.3996 32.9896 14.7149 32.3039 12.16C31.6181 9.60508 30.3351 7.25509 28.5634 5.30882C26.7917 3.36256 24.5835 1.87728 22.1254 0.97863C19.6674 0.0799827 17.0319 -0.205596 14.4419 0.146052C11.8518 0.4977 9.38352 1.47623 7.24569 2.99886C5.10786 4.5215 3.36342 6.54344 2.15993 8.89365C0.956446 11.2439 0.329321 13.8532 0.33161 16.5009C0.332489 20.3499 1.67116 24.0757 4.11273 27.0244L4.08947 27.0445C4.17089 27.1435 4.26393 27.2283 4.34767 27.3261C4.45235 27.4475 4.56516 27.5618 4.67333 27.6796C4.99899 28.0379 5.33395 28.382 5.6852 28.7049C5.7922 28.8039 5.90269 28.8958 6.01085 28.9901C6.38303 29.3153 6.76568 29.6241 7.16229 29.9116C7.21346 29.947 7.25998 29.9929 7.31116 30.0295V30.0153C10.0352 31.9576 13.2848 33 16.6157 33C19.9466 33 23.1962 31.9576 25.9202 30.0153V30.0295C25.9714 29.9929 26.0167 29.947 26.0691 29.9116C26.4645 29.6229 26.8483 29.3153 27.2205 28.9901C27.3287 28.8958 27.4392 28.8027 27.5462 28.7049C27.8974 28.3808 28.2324 28.0379 28.558 27.6796C28.6662 27.5618 28.7778 27.4475 28.8837 27.3261C28.9663 27.2283 29.0605 27.1435 29.1419 27.0433L29.1163 27.0244ZM16.6145 7.07334C17.6497 7.07334 18.6616 7.38435 19.5223 7.96705C20.3829 8.54976 21.0538 9.37797 21.4499 10.347C21.846 11.316 21.9497 12.3822 21.7477 13.4109C21.5458 14.4396 21.0473 15.3845 20.3154 16.1261C19.5834 16.8678 18.6508 17.3728 17.6356 17.5775C16.6203 17.7821 15.568 17.6771 14.6116 17.2757C13.6553 16.8743 12.8379 16.1946 12.2628 15.3225C11.6877 14.4505 11.3807 13.4252 11.3807 12.3763C11.3807 10.9699 11.9321 9.62106 12.9137 8.62655C13.8952 7.63204 15.2264 7.07334 16.6145 7.07334ZM7.31814 27.0244C7.33831 25.4771 7.95893 24 9.0457 22.9128C10.1325 21.8255 11.598 21.2155 13.1253 21.2147H20.1037C21.631 21.2155 23.0965 21.8255 24.1833 22.9128C25.2701 24 25.8907 25.4771 25.9109 27.0244C23.3601 29.3534 20.0482 30.6423 16.6145 30.6423C13.1808 30.6423 9.86892 29.3534 7.31814 27.0244Z" fill="#0C0C0C"/>
</svg>
