<svg width="50" height="42" viewBox="0 0 50 42" fill="none" xmlns="http://www.w3.org/2000/svg">
<path d="M7.39038 18C10.1079 18 12.3173 15.3094 12.3173 12C12.3173 8.69063 10.1079 6 7.39038 6C4.67288 6 2.46346 8.69063 2.46346 12C2.46346 15.3094 4.67288 18 7.39038 18ZM41.8788 18C44.5964 18 46.8058 15.3094 46.8058 12C46.8058 8.69063 44.5964 6 41.8788 6C39.1613 6 36.9519 8.69063 36.9519 12C36.9519 15.3094 39.1613 18 41.8788 18ZM44.3423 21H39.4154C38.0605 21 36.8364 21.6656 35.9434 22.7438C39.0459 24.8156 41.2476 28.5562 41.7249 33H46.8058C48.1684 33 49.2692 31.6594 49.2692 30V27C49.2692 23.6906 47.0598 21 44.3423 21ZM24.6346 21C29.3999 21 33.2567 16.3031 33.2567 10.5C33.2567 4.69687 29.3999 0 24.6346 0C19.8694 0 16.0125 4.69687 16.0125 10.5C16.0125 16.3031 19.8694 21 24.6346 21ZM30.5469 24H29.908C28.3067 24.9375 26.5284 25.5 24.6346 25.5C22.7408 25.5 20.9702 24.9375 19.3613 24H18.7223C13.8262 24 9.85385 28.8375 9.85385 34.8V37.5C9.85385 39.9844 11.509 42 13.549 42H35.7202C37.7602 42 39.4154 39.9844 39.4154 37.5V34.8C39.4154 28.8375 35.4431 24 30.5469 24ZM13.3258 22.7438C12.4328 21.6656 11.2088 21 9.85385 21H4.92692C2.20942 21 0 23.6906 0 27V30C0 31.6594 1.10086 33 2.46346 33H7.53665C8.02165 28.5562 10.2234 24.8156 13.3258 22.7438Z" fill="#D29800"/>
</svg>
