<svg width="37" height="29" viewBox="0 0 37 29" fill="none" xmlns="http://www.w3.org/2000/svg">
<path d="M36.7576 6.59615C36.7576 3.3442 34.3656 0.728183 31.41 0.728183C27.4065 0.541015 23.3234 0.46875 19.1508 0.46875H17.85C13.6875 0.46875 9.59731 0.541015 5.5938 0.728906C2.64536 0.728906 0.253369 3.35937 0.253369 6.61133C0.0727051 9.18326 -0.00389648 11.7559 0.000439453 14.3286C-0.00678711 16.9012 0.0751139 19.4763 0.246143 22.0538C0.246143 25.3057 2.63813 27.9434 5.58657 27.9434C9.79243 28.1385 14.1067 28.2252 18.4932 28.218C22.887 28.2325 27.1892 28.1409 31.3998 27.9434C34.3555 27.9434 36.7475 25.3057 36.7475 22.0538C36.9209 19.4739 37.0004 16.9012 36.9932 14.3213C37.0096 11.7487 36.9311 9.17362 36.7576 6.59615ZM14.9594 21.4178V7.21763L25.4379 14.3141L14.9594 21.4178Z" fill="black"/>
</svg>
